# xmcd
#
# Track frame offsets: 
#        150
#        16473
#        30807
#        45543
#        58455
#        70461
#        83983
#        99613
#        112423
#        123110
#        137161
#        149548
#        171757
#        184735
#        203888
#        218430
#        236825
#        248755
#        266028
#        286689
#
# Disc length: 3960 seconds
#
# Revision: 0
# Processed by: cddbd v1.5.2PL0 Copyright (c) Steve Scherf et al.
# Submitted via: ExactAudioCopy v1.1
#
DISCID=2d0f7614
DTITLE=Muddy Waters - Muddy, Brass And The Blues - Can't Get No Grindi
DTITLE=n'
DYEAR=2011
DGENRE=Blues
TTITLE0=Corine, Corina (stereo)
TTITLE1=Piney Brown Blues (stereo)
TTITLE2=Black Night (stereo)
TTITLE3=Trouble In Mind (stereo)
TTITLE4=Going Back To Memphis (stereo)
TTITLE5=Betty And Dupree (stereo)
TTITLE6=Sweet Little Angel (stereo)
TTITLE7=Take My Advice (stereo)
TTITLE8=Trouble (stereo)
TTITLE9=Hard Loser (stereo)
TTITLE10=Can't Get No Grindin' (What's The Matter With The Meal)
TTITLE11=Mother's Bad Luck Child
TTITLE12=Funky Butt
TTITLE13=Sad Letter
TTITLE14=Someday I'm Gonna Ketch You
TTITLE15=Love Weapon
TTITLE16=Garbage Man
TTITLE17=After Hours
TTITLE18=Whiskey Ain't No Good
TTITLE19=Muddy Waters' Shuffle
EXTD=
EXTT0=
EXTT1=
EXTT2=
EXTT3=
EXTT4=
EXTT5=
EXTT6=
EXTT7=
EXTT8=
EXTT9=
EXTT10=
EXTT11=
EXTT12=
EXTT13=
EXTT14=
EXTT15=
EXTT16=
EXTT17=
EXTT18=
EXTT19=
PLAYORDER=
